<?xml version="1.0" encoding="utf-8"?>
<!-- Generator: Adobe Adobe Illustrator 29.1.0, SVG Export Plug-In . SVG Version: 6.00 Build 0)  -->
<svg version="1.1" id="Layer_1" xmlns="http://www.w3.org/2000/svg" xmlns:xlink="http://www.w3.org/1999/xlink" x="0px" y="0px"
	 width="500px" height="500px" viewBox="0 0 500 500" style="enable-background:new 0 0 500 500;" xml:space="preserve">
<style type="text/css">
	.st0{fill:#FF9700;}
	.st1{fill:#4D5153;}
	.st2{fill:#FFFFFF;}
	.st3{fill:#292E30;}
	.st4{fill:#EE6200;}
</style>
<polygon class="st1" points="250.17,21.19 250.17,231.49 68.04,126.34 "/>
<polygon class="st0" points="250.17,21.19 250.17,231.49 432.29,126.34 "/>
<polygon class="st1" points="250.17,90.24 250.17,300.54 68.04,195.39 "/>
<polygon class="st0" points="250.17,90.24 250.17,300.54 432.29,195.39 "/>
<polygon class="st0" points="432.29,126.34 432.29,195.39 372.49,160.87 "/>
<polygon class="st1" points="68.04,126.34 68.04,195.39 127.84,160.87 "/>
<rect x="88.97" y="195.39" class="st1" width="38.87" height="76.96"/>
<rect x="68.04" y="126.35" class="st1" width="20.93" height="146"/>
<polygon class="st1" points="253.81,414.41 250.39,480.47 191.46,450.41 "/>
<rect x="191.17" y="230.29" class="st1" width="59" height="220.07"/>
<polygon class="st0" points="250.12,201.49 250.12,411.79 432.25,306.64 "/>
<polygon class="st0" points="250.12,270.54 250.12,480.84 432.25,375.69 "/>
<polygon class="st0" points="432.25,306.64 432.25,375.69 372.45,341.16 "/>
<polygon class="st2" points="191.18,124.09 191.18,194.48 130.22,159.29 "/>
<polygon class="st2" points="310.78,126.49 310.77,196.88 371.73,161.69 "/>
<polygon class="st1" points="128.57,91.5 128.57,161.89 67.62,126.69 "/>
<polygon class="st1" points="127.75,230.29 128.69,300.35 68.49,264.5 "/>
<polygon class="st1" points="68,255.3 68.64,324.8 126.05,290.56 "/>
<polygon class="st1" points="69.43,266.02 68.49,336.09 128.69,300.24 "/>
<polygon class="st2" points="311.73,307.79 311.73,378.18 372.69,342.98 "/>
</svg>
